# xmcd
#
# Track frame offsets:
#	150
#	12713
#	26868
#	39370
#	50380
#	63025
#	75485
#	88338
#	101020
#	111748
#	122433
#	133315
#	147243
#	160498
#	178985
#	190840
#
# Disc length: 2681 seconds
#
# Revision: 0
# Processed by: cddbd v1.4PL0 Copyright (c) Steve Scherf et al.
# Submitted via: audiograbber 1.80
#
DISCID=e80a7710
DTITLE=Dionne Warwick           FJGG - Here Where There Is Love
DYEAR=1900
DGENRE=
TTITLE0=Go With Love
TTITLE1=What The World Needs Now Is Love
TTITLE2=I Just Don't Know What To Do With Myself
TTITLE3=Here Where There Is Love
TTITLE4=Trains And Boats And Planes
TTITLE5=Alfie
TTITLE6=As Long As He Needs Me
TTITLE7=I Wish You Love
TTITLE8=He Loves Me
TTITLE9=Please Make Him Love Me
TTITLE10=Make The Night A Little Longer
TTITLE11=A House Is Not A Home
TTITLE12=Summertime
TTITLE13=You'll Never Walk Alone
TTITLE14=I Never Knew What You Were Up To
TTITLE15=Blowin' In The Wind
EXTD=
EXTT0=
EXTT1=
EXTT2=
EXTT3=
EXTT4=
EXTT5=
EXTT6=
EXTT7=
EXTT8=
EXTT9=
EXTT10=
EXTT11=
EXTT12=
EXTT13=
EXTT14=
EXTT15=
PLAYORDER=
